<?xml version="1.0" encoding="utf-8"?>
<!-- Generator: Adobe Illustrator 24.2.0, SVG Export Plug-In . SVG Version: 6.00 Build 0)  -->
<svg version="1.1" id="Layer_1" xmlns="http://www.w3.org/2000/svg" xmlns:xlink="http://www.w3.org/1999/xlink" x="0px" y="0px"
	 viewBox="0 0 61.6 156.9" style="enable-background:new 0 0 61.6 156.9;" xml:space="preserve">
<style type="text/css">
	.st0{display:none;}
	.st1{display:inline;fill:url(#SVGID_1_);}
	.st2{display:inline;fill:url(#SVGID_2_);}
	.st3{display:inline;filter:url(#Adobe_OpacityMaskFilter);}
	.st4{filter:url(#Adobe_OpacityMaskFilter_1_);}
	.st5{mask:url(#SVGID_3_);fill:url(#SVGID_4_);}
	.st6{display:inline;opacity:0.4;fill:url(#SVGID_5_);}
	.st7{display:inline;fill:url(#SVGID_6_);}
	.st8{display:inline;filter:url(#Adobe_OpacityMaskFilter_2_);}
	.st9{filter:url(#Adobe_OpacityMaskFilter_3_);}
	.st10{mask:url(#SVGID_7_);fill:url(#SVGID_8_);}
	.st11{display:inline;fill:url(#SVGID_9_);}
	.st12{display:inline;filter:url(#Adobe_OpacityMaskFilter_4_);}
	.st13{filter:url(#Adobe_OpacityMaskFilter_5_);}
	.st14{mask:url(#SVGID_10_);fill:url(#SVGID_11_);}
	.st15{display:inline;opacity:0.5;fill:url(#SVGID_12_);}
	.st16{fill:#231F20;}
	.st17{fill:#FFFEEE;}
	.st18{fill:#C9CACC;}
	.st19{display:inline;}
	.st20{fill:#603813;}
	.st21{display:none;fill:#603813;}
	.st22{fill:#FCFCF4;}
	.st23{fill:#E5DBDA;}
	.st24{fill:#3F2614;}
	.st25{fill:#1D1D1B;}
	.st26{fill:#BAB4B3;}
	.st27{fill:#FFFFFF;}
	.st28{fill:url(#SVGID_13_);}
	.st29{display:inline;fill:#3F2614;}
	.st30{display:inline;opacity:0.2;fill:#5C697D;}
	.st31{display:inline;fill:#FFFFFF;}
	.st32{display:inline;opacity:0.5;fill:#613D27;}
	.st33{display:inline;fill:#613D27;}
	.st34{display:inline;opacity:0.5;fill:#3F2614;}
	.st35{fill:#2D2728;}
</style>
<g>
	<g class="st0">
		<radialGradient id="SVGID_1_" cx="36.3744" cy="-24.5266" r="278.3032" gradientUnits="userSpaceOnUse">
			<stop  offset="9.494580e-02" style="stop-color:#FFBFD4"/>
			<stop  offset="0.5939" style="stop-color:#FD8AB2"/>
			<stop  offset="0.9507" style="stop-color:#EC4487"/>
		</radialGradient>
		<path class="st1" d="M162.2,179.4c0,17.6-14.3,31.9-31.9,31.9H-60.9c-17.6,0-31.9-14.3-31.9-31.9V-11.9
			c0-17.6,14.3-31.9,31.9-31.9h191.3c17.6,0,31.9,14.3,31.9,31.9V179.4z"/>
		<radialGradient id="SVGID_2_" cx="89.3743" cy="-21.5265" r="292.3307" gradientUnits="userSpaceOnUse">
			<stop  offset="0.4852" style="stop-color:#EECED9"/>
			<stop  offset="0.7952" style="stop-color:#E1A7BB"/>
			<stop  offset="0.9507" style="stop-color:#C36E8F"/>
		</radialGradient>
		<path class="st2" d="M132.3,195.3H-46.9c-16.5,0-29.9-13.4-29.9-29.9V-13.9c0-16.5,13.4-29.9,29.9-29.9h-14
			c-17.6,0-31.9,14.3-31.9,31.9v191.3c0,17.6,14.3,31.9,31.9,31.9h191.3c17.6,0,31.9-14.3,31.9-31.9v-14
			C162.2,181.9,148.8,195.3,132.3,195.3z"/>
		<defs>
			<filter id="Adobe_OpacityMaskFilter" filterUnits="userSpaceOnUse" x="-60.7" y="-37.8" width="218.7" height="139.7">
				<feFlood  style="flood-color:white;flood-opacity:1" result="back"/>
				<feBlend  in="SourceGraphic" in2="back" mode="normal"/>
			</filter>
		</defs>
		<mask maskUnits="userSpaceOnUse" x="-60.7" y="-37.8" width="218.7" height="139.7" id="SVGID_3_" class="st19">
			<g style="filter:url(#Adobe_OpacityMaskFilter);">
				<defs>
					<filter id="Adobe_OpacityMaskFilter_1_" filterUnits="userSpaceOnUse" x="-60.7" y="-37.8" width="218.7" height="139.7">
						<feFlood  style="flood-color:white;flood-opacity:1" result="back"/>
						<feBlend  in="SourceGraphic" in2="back" mode="normal"/>
					</filter>
				</defs>
				<mask maskUnits="userSpaceOnUse" x="-60.7" y="-37.8" width="218.7" height="139.7" id="SVGID_3_">
					<g class="st4">
					</g>
				</mask>
				<radialGradient id="SVGID_4_" cx="105.3743" cy="-36.526" r="177.1008" gradientUnits="userSpaceOnUse">
					<stop  offset="6.710380e-02" style="stop-color:#FFFFFF"/>
					<stop  offset="0.253" style="stop-color:#FFFFFF"/>
					<stop  offset="0.6196" style="stop-color:#FFFFFF"/>
					<stop  offset="1" style="stop-color:#000000"/>
				</radialGradient>
				<path class="st5" d="M-58.2-27c5.6,14.1,19,40.6,20.7,43.6C0.8,83.1,81,114,155.2,97.6c0.9-0.2,1.8-0.4,2.7-0.6
					c0-0.7,0-1.5,0-2.2c0.2-20.7-1.3-41.5-1.1-62.2c0.2-13.6,0.3-27.1,0.3-40.7c0-16.4-13.3-29.6-29.6-29.6c0,0-176.7,0-177.8,0
					c-4.1,0-7.5,0.8-10.2,2.1C-61.2-35.3-60.2-31.9-58.2-27z"/>
			</g>
		</mask>
		<radialGradient id="SVGID_5_" cx="105.3743" cy="-36.526" r="177.1008" gradientUnits="userSpaceOnUse">
			<stop  offset="6.710380e-02" style="stop-color:#FFFFFF"/>
			<stop  offset="0.253" style="stop-color:#FFBFD4"/>
			<stop  offset="0.6196" style="stop-color:#FD8AB2"/>
			<stop  offset="1" style="stop-color:#EC4487"/>
		</radialGradient>
		<path class="st6" d="M-58.2-27c5.6,14.1,19,40.6,20.7,43.6C0.8,83.1,81,114,155.2,97.6c0.9-0.2,1.8-0.4,2.7-0.6c0-0.7,0-1.5,0-2.2
			c0.2-20.7-1.3-41.5-1.1-62.2c0.2-13.6,0.3-27.1,0.3-40.7c0-16.4-13.3-29.6-29.6-29.6c0,0-176.7,0-177.8,0c-4.1,0-7.5,0.8-10.2,2.1
			C-61.2-35.3-60.2-31.9-58.2-27z"/>
		<linearGradient id="SVGID_6_" gradientUnits="userSpaceOnUse" x1="34.6928" y1="68.4734" x2="34.6928" y2="213.4879">
			<stop  offset="0.3586" style="stop-color:#FFFFFF"/>
			<stop  offset="0.7952" style="stop-color:#E1A7BB"/>
			<stop  offset="0.9507" style="stop-color:#C36E8F"/>
		</linearGradient>
		<path class="st7" d="M101.2,152.1c-14.7,5-30.6,7.8-46.1,9.4c-16.7,1.7-33.5,0.9-50-2.2c-24.4-4.6-47.3-15.7-66.4-31.4
			c-12.6-10.3-23.1-22.6-31.5-36v87.5c0,17.6,14.3,31.9,31.9,31.9h191.3c17.6,0,31.9-14.3,31.9-31.9v-63
			C144.6,132.2,123.7,144.5,101.2,152.1z"/>
		<defs>
			<filter id="Adobe_OpacityMaskFilter_2_" filterUnits="userSpaceOnUse" x="-60.4" y="-35.6" width="213.1" height="172.8">
				<feFlood  style="flood-color:white;flood-opacity:1" result="back"/>
				<feBlend  in="SourceGraphic" in2="back" mode="normal"/>
			</filter>
		</defs>
		<mask maskUnits="userSpaceOnUse" x="-60.4" y="-35.6" width="213.1" height="172.8" id="SVGID_7_" class="st19">
			<g style="filter:url(#Adobe_OpacityMaskFilter_2_);">
				<defs>
					<filter id="Adobe_OpacityMaskFilter_3_" filterUnits="userSpaceOnUse" x="-60.4" y="-35.6" width="213.1" height="172.8">
						<feFlood  style="flood-color:white;flood-opacity:1" result="back"/>
						<feBlend  in="SourceGraphic" in2="back" mode="normal"/>
					</filter>
				</defs>
				<mask maskUnits="userSpaceOnUse" x="-60.4" y="-35.6" width="213.1" height="172.8" id="SVGID_7_">
					<g class="st9">
					</g>
				</mask>
				<radialGradient id="SVGID_8_" cx="142.0415" cy="-20.8586" r="114.0301" gradientUnits="userSpaceOnUse">
					<stop  offset="6.710380e-02" style="stop-color:#FFFFFF"/>
					<stop  offset="0.253" style="stop-color:#FFFFFF"/>
					<stop  offset="0.6196" style="stop-color:#FFFFFF"/>
					<stop  offset="1" style="stop-color:#000000"/>
				</radialGradient>
				<path class="st10" d="M-60.4-35.6c0,0,156.5,0,171.8,0c15.3,0,41.3-0.6,41.3,28.1c0,28.7,0,144.7,0,144.7s-9.3-114.7-9.3-128.7
					s-8-32-33.3-32C84.7-23.5-60.4-35.6-60.4-35.6z"/>
			</g>
		</mask>
		<radialGradient id="SVGID_9_" cx="142.0415" cy="-20.8586" r="114.0301" gradientUnits="userSpaceOnUse">
			<stop  offset="6.710380e-02" style="stop-color:#FFFFFF"/>
			<stop  offset="0.253" style="stop-color:#FFBFD4"/>
			<stop  offset="0.6196" style="stop-color:#FD8AB2"/>
			<stop  offset="1" style="stop-color:#EC4487"/>
		</radialGradient>
		<path class="st11" d="M-60.4-35.6c0,0,156.5,0,171.8,0c15.3,0,41.3-0.6,41.3,28.1c0,28.7,0,144.7,0,144.7s-9.3-114.7-9.3-128.7
			s-8-32-33.3-32C84.7-23.5-60.4-35.6-60.4-35.6z"/>
		<defs>
			<filter id="Adobe_OpacityMaskFilter_4_" filterUnits="userSpaceOnUse" x="-50.2" y="-37.8" width="175.6" height="54.9">
				<feFlood  style="flood-color:white;flood-opacity:1" result="back"/>
				<feBlend  in="SourceGraphic" in2="back" mode="normal"/>
			</filter>
		</defs>
		<mask maskUnits="userSpaceOnUse" x="-50.2" y="-37.8" width="175.6" height="54.9" id="SVGID_10_" class="st19">
			<g style="filter:url(#Adobe_OpacityMaskFilter_4_);">
				<defs>
					<filter id="Adobe_OpacityMaskFilter_5_" filterUnits="userSpaceOnUse" x="-50.2" y="-37.8" width="175.6" height="54.9">
						<feFlood  style="flood-color:white;flood-opacity:1" result="back"/>
						<feBlend  in="SourceGraphic" in2="back" mode="normal"/>
					</filter>
				</defs>
				<mask maskUnits="userSpaceOnUse" x="-50.2" y="-37.8" width="175.6" height="54.9" id="SVGID_10_">
					<g class="st13">
					</g>
				</mask>
				<radialGradient id="SVGID_11_" cx="40.707" cy="-43.5275" r="84.6782" gradientUnits="userSpaceOnUse">
					<stop  offset="6.710380e-02" style="stop-color:#FFFFFF"/>
					<stop  offset="0.253" style="stop-color:#FFFFFF"/>
					<stop  offset="0.6196" style="stop-color:#FFFFFF"/>
					<stop  offset="1" style="stop-color:#000000"/>
				</radialGradient>
				<path class="st14" d="M37.4-36.9c31.3,0,88,0,88,0s2.7,54-84,54c-86.7,0-91.6-54.9-91.6-54.9S22.7-36.9,37.4-36.9z"/>
			</g>
		</mask>
		<radialGradient id="SVGID_12_" cx="40.707" cy="-43.5275" r="84.6782" gradientUnits="userSpaceOnUse">
			<stop  offset="6.710380e-02" style="stop-color:#FFFFFF"/>
			<stop  offset="0.253" style="stop-color:#FFBFD4"/>
			<stop  offset="0.6196" style="stop-color:#FD8AB2"/>
			<stop  offset="1" style="stop-color:#EC4487"/>
		</radialGradient>
		<path class="st15" d="M37.4-36.9c31.3,0,88,0,88,0s2.7,54-84,54c-86.7,0-91.6-54.9-91.6-54.9S22.7-36.9,37.4-36.9z"/>
	</g>
	<g>
		<g>
			<g>
				<g>
					<path class="st16" d="M32.6,149.5c0.6,0.8,1.2,1.7,1.9,2.4c1.9,1.8,3.7,2.8,6.2,3.3c3,0.6,6.6-0.6,9.3-2.5c2.1-1.2,3.8-3,5-5.5
						c4.5-6.9,4.9-15.4-3.6-20.2c0,0,0,0,0,0c-0.1-0.1-0.3-0.3-0.4-0.4c-0.2-0.2-0.4-0.3-0.6-0.5c-0.1-0.3-0.2-0.6-0.3-1
						c-0.6-11.4-1.2-22.9-1.8-34.4c-0.1-11,0-7.2,0.1-18.2c0.1-11.6,0.7-2.8,0.7-14.5c0-6.2-0.1-12.4,1-18.5c0.5-3.2,1.2-7,2.6-10.1
						c3.9-2.7,6.7-7.5,5.9-11.9C57.1,10.5,51.8,3.1,45.4,2c-1.6-0.5-3.3-0.6-4.8-0.3c-2.5,0.5-4.3,1.5-6.2,3.4
						c-0.7,0.7-1.3,1.6-1.9,2.4c-2.9,3.8-4.9,3.2-8,0.6C15.7,0.7,4.4,6.8,2.4,18c-0.9,5.1,1,10.5,3.7,14.5c2.3,3.4,5.7,4.7,9.4,5.2
						c2.9,4,2.6,8.8,2.5,14.1c-0.1,4.9,0.1,4.1,0.3,9c0.4,9.8,0.4,5.1,0.4,15c0.1,10.1,0.5,5.5,0.4,15.7c-0.1,5.1-0.3,10.1-0.7,15.2
						c-0.2,2.7-0.3,5.4-1,8c-0.4,1.7-1.5,3.2-2.1,4.8c-3.6,0.5-7.1,1.9-9.3,5.3c-2.7,4.1-4.6,9.4-3.6,14.5
						c2.1,11.2,13.5,17.2,22.2,9.8C27.6,146.3,29.7,145.7,32.6,149.5z"/>
					<path class="st17" d="M35.9,140.7c-0.4-0.2-0.9-0.3-1.3-0.5c-0.8-0.3-1.7-0.3-2.5-0.2c-1,0.3-2,1.1-2.8,1.9
						c0.6,0,1.1,0.1,1.7,0.4c5.8,2.9,7.6,12.2,16.2,9.4c7.5-2.4,10.3-12,6.6-19c-1.8-3.4-4.5-5.1-7.7-6.4c-1.3-0.9-2.7-1.6-4.3-2
						c-0.2-0.1-1.9-0.4-3.5-0.6c-0.1-0.1-0.1-0.2,0.1-0.4c2-1.9,6.4-0.7,9.8,0.9c-1-3.2-1-6.8-1.1-10.3c-0.3-6.6-0.4-13.1-0.5-19.7
						c0-2.6-0.1-5.2-0.1-7.9c-0.6-12.1-1.4-9.4-1.4-21.6c0-11.8,0.2-3.1,0.8-14.9c0.3-5,1.1-9.8,1.8-14.7c0.3-1.8,0.6-3.6,1.4-4.9
						c-2,0.4-4.1,0.2-5.9-1c-0.2-0.1-0.3-0.3-0.3-0.5c0.1-0.3,0.5-0.5,1-0.7c0,0,0.1,0,0.1,0c0.1,0.1,0.2,0.1,0.3,0.2
						c3.8,0.3,8.6-2.1,11.3-5.6c1.8-2.7,2.5-5.6,0.5-9.7C54,8.7,50.7,4,45.6,3.3C40,2.5,37.3,5.7,34.1,9.6c-0.4,0.5-0.9,1.1-1.5,1.7
						c1.6,0.3,3.3,0.2,5.2-0.7c1.7-0.9,1.3-0.7,3.2-1.1c0.6-0.1,1.4,0.7,0.8,1.2c-3.1,2.4-5.3,4.7-9.4,3.4c-1.1-0.4-2.3-0.9-3.4-1.4
						c-2-0.3-3.6-1.2-5.2-2.5c-2.9-1.3-5.9-2.1-9-1.2c-7,1.9-11.1,8.1-8.6,15.7c0.7,2.2,1.8,4,3,5.4c2.9,4.1,7.6,6.6,12.6,6.6
						c-0.1,0.1-0.2,0.1-0.4,0.2c-0.1,0.3-0.5,0.6-1.1,0.6c-1.3,0-2.7,0-4.1-0.1c3.9,4.9,2.5,11.6,2.7,18.5
						c0.3,12.2,0.8,3.9,0.8,16.1c0.1,12.3,0.8,9.7,0.5,22.1c-0.2,8.2,0.5,18-3.7,25.3c1.2-0.1,2.4-0.1,3.6-0.1c0,0,0.1,0,0.1,0
						c-2.3,0.5-4.6,1.5-6.6,3c-0.8,0.3-1.5,0.7-2.2,1.1c-2.5,0.9-4.6,2.5-6.3,5.6c-2.8,5.3-1.8,11.6,1.6,16.1c1,1.3,2,2.3,3.2,3
						c2.1,0.4,4.4,0.7,6.4,0.1c2-0.6,3.8-1.5,5.6-2.6c1.3-1.7,3.1-3.1,4.5-4.5c1.3-1.3,2.6-2.6,4.4-3c0.9-0.2,1.9-0.1,2.9,0.2
						c0.8,0.4,1.5,0.9,2.2,1.5c0.1,0.1,0.1,0.1,0.2,0.2c0.3,0.3,0.6,0.7,0.9,1.2c0.2,0.3,0.3,0.7,0.5,1.1c-0.1,0-0.1-0.1-0.2-0.1
						c-0.2-0.1-0.3-0.3-0.3-0.5C36.7,141.5,36.3,141.3,35.9,140.7z"/>
					<path class="st18" d="M35.9,140.7c-0.4-0.2-0.9-0.3-1.3-0.5c-0.8-0.3-1.7-0.3-2.5-0.2c-1,0.3-2,1.1-2.8,1.9
						c0.6,0,1.1,0.1,1.7,0.4c4.8,2.4,6.9,9,12.1,9.8c-0.6-1.5-0.8-3.1-0.2-4.6c0.6-1.7,0.7-3.5,1.3-5.1c1-2.6-2.3-6-4.2-7.1
						c-3.4-1.9-6.6-2.1-10.3-1.3c-2.1,0.5-4.5,1.2-6.7,0.9c-2.4-0.4-7-3.8-4.4-6.6c1.4-1.6,3.5-1.9,5.1-3c1.1-0.8,2.9-1.1,3.3-2.5
						c2-7,1.3-13.8,1.1-21c-0.3-8.3,0.1-16.6,0-25c-0.1-8.5-0.1-2-0.5-10.5c-0.4-9.1-0.8,2.3-1.1-6.9c-0.1-4.2-0.1-8.5,0.7-12.6
						c0.7-3,2.6-6.3,2.6-9.4c0-2.4-2.4-3.7-3.9-5.2c-1.6-1.6-3.4-3.4-4.2-5.6c-1.1-2.9,0-5.4,2.7-6.7c3.5-1.7,7.5-2.1,11.2-2.7
						c3.9-0.7,12.3-1.8,12-7.4C47.6,8,47,6,49,4.9c0.1-0.1,0.3-0.1,0.4-0.2c-1.1-0.7-2.4-1.2-3.8-1.4C40,2.5,37.3,5.7,34.1,9.6
						c-0.4,0.5-0.9,1.1-1.5,1.7c1.6,0.3,3.3,0.2,5.2-0.7c1.7-0.9,1.3-0.7,3.2-1.1c0.6-0.1,1.4,0.7,0.8,1.2c-3.1,2.4-5.3,4.7-9.4,3.4
						c-1.1-0.4-2.3-0.9-3.4-1.4c-2-0.3-3.6-1.2-5.2-2.5c-2.9-1.3-5.9-2.1-9-1.2c-7,1.9-11.1,8.1-8.6,15.7c0.7,2.2,1.8,4,3,5.4
						c2.9,4.1,7.6,6.6,12.6,6.6c-0.1,0.1-0.2,0.1-0.4,0.2c-0.1,0.3-0.5,0.6-1.1,0.6c-1.3,0-2.7,0-4.1-0.1c3.9,4.9,2.5,11.6,2.7,18.5
						c0.3,12.2,0.8,3.9,0.8,16.1c0.1,12.3,0.8,9.7,0.5,22.1c-0.2,8.2,0.5,18-3.7,25.3c1.2-0.1,2.4-0.1,3.6-0.1c0,0,0.1,0,0.1,0
						c-2.3,0.5-4.6,1.5-6.6,3c-0.8,0.3-1.5,0.7-2.2,1.1c-2.5,0.9-4.6,2.5-6.3,5.6c-2.8,5.3-1.8,11.6,1.6,16.1c1,1.3,2,2.3,3.2,3
						c2.1,0.4,4.4,0.7,6.4,0.1c2-0.6,3.8-1.5,5.6-2.6c1.3-1.7,3.1-3.1,4.5-4.5c1.3-1.3,2.6-2.6,4.4-3c0.9-0.2,1.9-0.1,2.9,0.2
						c0.8,0.4,1.5,0.9,2.2,1.5c0.1,0.1,0.1,0.1,0.2,0.2c0.3,0.3,0.6,0.7,0.9,1.2c0.2,0.3,0.3,0.7,0.5,1.1c-0.1,0-0.1-0.1-0.2-0.1
						c-0.2-0.1-0.3-0.3-0.3-0.5C36.7,141.5,36.3,141.3,35.9,140.7z"/>
				</g>
				<g class="st0">
					<g class="st19">
						<path class="st20" d="M26.6,80.9c0.4-2.5,3-4.8,7.9-4c4.9,0.8,6.6,3.7,6.2,6.2c-0.6,3.6-4.7,4.6-7.9,4.1
							C29.6,86.6,26.1,84.5,26.6,80.9z"/>
						<path class="st20" d="M32.9,72.9c0-0.7-0.1-1.4-0.6-1.9c-0.6-0.6-1.6-0.7-2.4-0.4c-0.3,0.1-0.7,0.3-1,0.6
							c-0.9,0.4-1.6,1.2-1.9,2c-0.3,0.8-0.2,1.6,0.4,2.3c0.5,0.6,1.6,0.8,2.3,0.7C31.5,76,32.9,74.5,32.9,72.9z"/>
						<path class="st20" d="M38.6,72c-0.3-0.1-0.6-0.1-1,0c-0.4-0.1-0.9-0.1-1.3,0.1c-1.5,0.6-2.5,2.6-1.2,3.9
							c1.1,1.1,3.1,0.6,4.1-0.4C40.5,74.5,40.5,72.5,38.6,72z"/>
						<path class="st20" d="M43.9,78c0.1-0.6-0.2-1-0.7-1.3c-0.4-0.3-0.9-0.2-1.4,0c0,0,0,0,0,0c0,0,0,0,0,0c0,0-0.1,0-0.1,0.1
							c-0.5,0.2-0.9,0.6-1.1,1.1c-0.2,0.5-0.1,1.3,0.5,1.5c0.1,0,0.2,0,0.2,0.1c0.2,0.1,0.5,0.1,0.8,0.1c0.1,0,0.2-0.1,0.3-0.1
							C43,79.3,43.8,78.7,43.9,78z"/>
					</g>
				</g>
				<path class="st21" d="M39.4,55.1c0.3,0,0.5-0.2,0.6-0.5c0.2-0.6,0.5-0.9,0.8-0.9c0.3,0,0.6,0.2,0.8,0.4c0.3,0.3,0.4,0.6,0.4,0.8
					l-0.1,1.7c0,0.8,0,1.8,0,3.1c0,1.3,0,2.2,0,2.8c-0.1,2.2-0.8,3.9-2.1,5.1c-1.3,1.2-2.9,1.8-4.8,1.7c-2.1-0.1-4-1.2-5.7-3.2
					c-1.6-2-2.8-4.7-3.4-8.3c-0.2-1.4-0.5-2.3-0.8-2.9c-0.4-0.7-0.6-1.2-0.5-1.6c0-0.3,0.2-0.6,0.5-0.8c0.3-0.2,0.6-0.3,0.8-0.3
					c0.1,0,0.3,0.1,0.6,0.3c0.3,0.2,0.7,0.3,1,0.4c0.3,0.1,1,0.2,1.9,0.3c0.9,0.1,2.3,0.3,4.3,0.7c2,0.4,3.4,0.6,4.2,0.9
					C38.6,55,39.1,55.1,39.4,55.1z M39.2,58.6c-4.2-1-7.2-1.5-8.9-1.6c-0.4,0-0.7,0-0.9,0.1c0,0-0.1,0.1-0.1,0.3
					c0,0.4,0.2,1.4,0.6,3.1c0.4,1.7,1.1,3.1,2.1,4.2c1,1.1,2.1,1.7,3.5,1.8c1.1,0.1,2-0.3,2.7-1.1c0.7-0.8,1.1-1.8,1.2-3.1
					c0-0.8,0-1.8-0.1-2.9C39.2,59.1,39.2,58.9,39.2,58.6z"/>
				<path class="st21" d="M34.2,100.4c0.1-0.1-0.2-0.4-0.7-0.9c-0.9-0.8-1.8-1.9-2.5-3.2c-0.7-1.3-1.1-2.5-1.1-3.6
					c0-0.8,0.3-1.5,0.7-1.9c0.5-0.5,1.2-0.7,2.1-0.7c1.4,0,2.9,0.5,4.6,1.6c1.7,1.1,3.2,2.6,4.4,4.5c1.3,1.9,1.9,3.6,1.9,5.1
					c0,0.8-0.2,1.4-0.6,2c-0.1,0.1-0.2,0.3-0.3,0.4c-0.1,0.2-0.3,0.3-0.7,0.5c-0.4,0.1-0.6,0.2-0.8,0.2c-0.1,0-0.3,0-0.6-0.2
					c-1.5-0.6-2.7-0.9-3.7-1.1c-1-0.2-2.6-0.4-4.9-0.7c-2.1-0.2-3.6-0.5-4.7-0.7c-1.1-0.3-2.2-0.7-3.2-1.4c-1-0.7-1.8-1.5-2.3-2.4
					c-0.5-0.9-0.8-1.9-0.8-2.9c0-1.7,0.6-3.4,1.7-5.1c1.1-1.7,2.1-2.5,2.8-2.5c0.4,0,0.7,0.2,0.7,0.5c0,0.2-0.3,0.7-0.8,1.5
					c-1.4,2.2-2.1,4.1-2.1,5.8c0,1.5,0.8,2.6,2.3,3.4c1.6,0.8,3.9,1.3,7,1.6C33.1,100.2,33.7,100.3,34.2,100.4z M40.7,99.8
					c0-0.6-0.3-1.3-0.9-2.2c-0.6-0.9-1.5-1.7-2.6-2.6c-1.2-0.8-2.1-1.3-2.9-1.3c-0.3,0-0.5,0.1-0.6,0.3c-0.2,0.2-0.2,0.4-0.2,0.6
					c0,0.6,0.3,1.4,0.9,2.4c0.6,1,1.5,1.9,2.6,2.6c1.1,0.7,2,1.1,2.6,1.1C40.3,100.6,40.7,100.3,40.7,99.8z"/>
			</g>
		</g>
		<g class="st0">
			<g class="st19">
				<path class="st22" d="M66.3,51.3c0,0-9-9.5-2.8-26.1c6-13,17.4-6.2,17.4-6.2s22.1-32,59.9-0.3c9.3-4.2,18.8-14.5,17.6-16.8
					c-1.3-2.3-24.1-6.3-24.8-9.6c-0.7-3.3,26.1-13.5,44.6,6.8c8.8,10,8.5,12.6,14.8,18.1c6.3,5.5,4.7,12-2,18.8
					c-6.8,6.8-13.3,11.8-13.3,11.8s19.8,25.9,5.4,66.7c0,0,22.8,15.3,23.3,27.6c0.5,12.3-16.4,41.1-29.9,42.8c0,0-10.3-0.3-16,0.5
					c-5.8,0.7-11.3,0.5-7.8-3.8c3.5-4.3,24.3-14.2,24.3-14.2s-5.8-8.8-11.5-5.8c-5.8,3-13.8,5.7-23.3,7.2
					c-9.5,1.5-14.1,6.7-25.1,12.5c-11,5.7-27.8,0-33.6-10.6c-11.8-0.8-19.3-16.1-14.2-27.9c-5.5-3.3-8.3-12-6-26.8
					c2.3-14.8,5.3-36.3,1.8-47.1C61.5,58.3,61.3,55.4,66.3,51.3z"/>
				<path d="M60.8,36.5c0-3.7,0.8-7.5,2.2-11.4c1.9-4.2,4.6-6.8,7.9-7.8c4.4-1.3,8.5,0.5,9.8,1.2c1.6-2,9.8-12,23.4-13.9
					c11.6-1.6,24,3,36.7,13.6C149.8,14,158,4.9,158,2.5c0-0.1,0-0.2,0-0.2c-0.5-0.8-5.9-2.3-10.2-3.6c-8.6-2.4-14.2-4.2-14.7-6.1
					c0-0.1,0-0.2,0-0.3l0,0c0-1.6,3.3-3.1,4.8-3.6c8.6-3.3,26.9-4.9,40.7,10.3c4,4.6,6.2,7.7,7.9,10.1c2,2.9,3.5,5,6.8,7.9
					c6.1,5.4,5.4,12.1-2,19.5c-5.8,5.8-11.5,10.3-13,11.5c1.7,2.5,10.5,16.2,10.4,37.5c0,9.4-1.7,19.2-5.1,28.9
					c2.9,2,22.7,16.1,23.2,27.8c0.5,12.6-16.5,41.6-30.3,43.3c-0.2,0-10.4-0.3-16,0.5c-4.7,0.6-7.6,0.4-8.8-0.7
					c-1-0.9-0.8-2.2,0.6-3.9c3.3-4,20.6-12.5,24-14.1c-1.3-1.7-6-7.5-10.5-5.1c-6.4,3.3-14.8,5.9-23.5,7.3c-6.1,1-10.2,3.5-15.3,6.8
					c-2.7,1.7-5.8,3.7-9.6,5.6c-10.9,5.7-28,0.3-34.1-10.6c-8.9-0.8-16-9.8-16-20.4c0-2.7,0.5-5.3,1.5-7.7
					c-4.4-2.8-6.7-8.9-6.7-17.5c0-2.9,0.3-6.2,0.8-9.6c1.8-11.4,3.4-23.4,3.4-33.5c0-5.7-0.5-10.2-1.6-13.4C62.9,64,62,60.7,62,58.2
					c0-2.7,1-4.6,3.6-6.9C64.4,49.9,60.8,44.8,60.8,36.5z M159,2.5c0,3.4-9.5,12.8-18,16.7l-0.3,0.1l-0.2-0.2
					C127.9,8.6,115.7,4.1,104.3,5.6c-14.7,2-22.9,13.7-23,13.8l-0.3,0.4l-0.4-0.2c0,0-4.7-2.8-9.4-1.3c-3,0.9-5.5,3.4-7.3,7.2
					c-1.4,3.8-2.1,7.5-2.1,11c0,9.2,4.8,14.4,4.8,14.5l0.4,0.4l-0.4,0.3c-2.7,2.2-3.7,3.9-3.7,6.4c0,2.4,0.9,5.7,2.5,10.8
					c1.1,3.3,1.6,7.9,1.6,13.7c0,10.2-1.7,22.2-3.4,33.6c-0.5,3.4-0.8,6.6-0.8,9.5c0,8.5,2.2,14.3,6.5,16.9l0.4,0.2l-0.2,0.4
					c-1,2.4-1.5,5-1.6,7.7c0,10.2,6.9,18.9,15.4,19.4l0.3,0l0.1,0.2c5.8,10.6,22.4,15.9,32.9,10.4c3.8-2,6.8-3.9,9.5-5.6
					c5.2-3.3,9.4-5.9,15.7-6.9c8.6-1.3,16.9-3.9,23.2-7.2c6.1-3.2,11.9,5.6,12.2,6l0.3,0.5l-0.5,0.2c-0.2,0.1-20.8,10-24.2,14.1
					c-0.8,1-1,1.6-1,1.9c0,0.2,0.1,0.4,0.3,0.6c0.9,0.8,3.8,1,8,0.4c5.7-0.7,16-0.5,16.1-0.5c13-1.7,29.9-30.3,29.4-42.3
					c-0.5-11.9-22.8-27.1-23.1-27.2l-0.3-0.2l0.1-0.4c3.4-9.8,5.2-19.5,5.2-29c0-23.2-10.4-37.1-10.5-37.3l-0.3-0.4l0.4-0.3
					c0.1-0.1,6.6-5.1,13.3-11.7c7-7,7.7-13.1,2.1-18.1c-3.4-3-4.9-5.1-7-8.1c-1.7-2.4-3.8-5.5-7.8-10c-13.5-14.8-31.2-13.3-39.6-10
					c-3.1,1.2-4.1,2.3-4.1,2.7c0.4,1.6,8.5,3.9,13.9,5.4c6.5,1.8,10.2,2.9,10.8,4.1C159,2,159,2.2,159,2.5z"/>
			</g>
			<g class="st19">
				<path class="st23" d="M176.9,167.5c0,0-20.8,10-24.3,14.2c-3.5,4.3,2,4.5,7.8,3.8c5.8-0.7,16-0.5,16-0.5
					c13.5-1.7,30.4-30.5,29.9-42.8c-0.5-12.3-23.3-27.6-23.3-27.6c14.4-40.8-5.4-66.7-5.4-66.7s6.5-5,13.3-11.8
					c6.8-6.8,8.3-13.3,2-18.8c-6.3-5.5-6-8-14.8-18.1c-18.5-20.3-45.4-10.1-44.6-6.8c0.7,3.3,23.6,7.3,24.8,9.6
					c1.2,2.3-8.3,12.5-17.6,16.8c-37.8-31.7-59.9,0.3-59.9,0.3s-11.4-6.9-17.4,6.2c-6.2,16.5,2.8,26.1,2.8,26.1
					c-5,4.1-4.8,6.9-1.3,17.7c3.5,10.8,0.4,32.3-1.8,47.1c-2.3,14.8,0.5,23.6,6,26.8c-5,11.8,2.5,27.1,14.2,27.9
					c5.7,10.5,22.5,16.3,33.6,10.6c11-5.7,15.6-11,25.1-12.5c9.5-1.5,17.6-4.2,23.3-7.2C171.2,158.8,176.9,167.5,176.9,167.5z
					 M95.9,28.2c-8.5-8.3,6.8-25.3,27.9-16.8c21,8.6,21.3,19.1,7.7,16.6c0,0-9.3-1.5-11.6,12.5C118.5,47.1,104.4,36.5,95.9,28.2z
					 M163.7,129.4c-1.7-16-18-11.8-16-16.6c11.3-21.5-3.9-43.1,1.1-43.4c5-0.2,13-2.5,14.8-15c1.8-12.5-16-23.1-16-23.1
					c-3.8-3.8,21.1,4,20,16.1c-1,12,1.2,13.5,2.2,17.8c1,4.3,1.7,10.3-7.6,17.3c-9.3,7,2,3.8,8-2.2c6-6,7.5-3.5,3,2.5
					c-5.1,6.8-7,11.5-1.8,14c5.3,2.5,5.7,12.3,0.2,6.3c-5.5-6-14-2.5-8.5,0.5C179.3,111.4,163.7,137.7,163.7,129.4z M117,176.7
					c-11.5,5.7-25.1-3.6-16.8-10.6c13.6-10.5,19.6-20.8,21.8-15c2.2,5.8,9,9.3,9,9.3C138.3,163.5,128.5,171,117,176.7z M151.9,162.5
					c-9.2,1.7-20.1-3.8-7.5-7.3c12.5-3.5,21.6-18.3,21.6-18.3C170.4,149.2,165.2,160,151.9,162.5z"/>
			</g>
			<g class="st19">
				<g>
					<path class="st24" d="M175.6,45.2c0.6,0.9,1.4,1.8,2.2,2.6c1.1-0.8,7-5.5,13.1-11.6c6.8-6.8,8.3-13.3,2-18.8
						c-6.3-5.5-6-8-14.8-18.1c-18.5-20.3-45.4-10.1-44.6-6.8c0.7,3.3,23.6,7.3,24.8,9.6c1.2,2.3-8.3,12.5-17.6,16.8
						C167.5,32.1,173.3,41.7,175.6,45.2z"/>
					<path class="st25" d="M133.1-7.7c0-1.6,3.3-3.1,4.8-3.6c8.6-3.3,26.9-4.9,40.7,10.3c4,4.6,6.2,7.7,7.9,10.1
						c2,2.9,3.5,5,6.8,7.9c6.1,5.4,5.4,12.1-2,19.5c-6.1,6.1-12,10.8-13.2,11.7l-0.4,0.3l-0.3-0.3c-0.9-0.9-1.7-1.8-2.3-2.7
						l-0.2-0.3c-2.4-3.6-8.6-13-34.4-25.9l-0.9-0.5l1-0.4C149.6,14.2,158,5,158,2.5c0-0.1,0-0.2,0-0.2c-0.5-0.8-5.9-2.3-10.2-3.6
						c-8.6-2.4-14.2-4.2-14.7-6.1C133.1-7.5,133.1-7.6,133.1-7.7z M196.4,25.1c0-2.6-1.3-5.1-3.8-7.3c-3.4-3-4.9-5.1-7-8.1
						c-1.7-2.4-3.8-5.5-7.8-10c-13.5-14.8-31.2-13.3-39.6-10C135-9.2,134-8,134.1-7.7c0.4,1.5,8.5,3.9,13.9,5.4
						c6.5,1.8,10.2,2.9,10.8,4.1C159,2,159,2.2,159,2.5c0,3.3-8.8,12.2-17.1,16.3c25.3,12.8,31.5,22.2,33.9,25.8l0.2,0.3
						c0.5,0.7,1.1,1.4,1.8,2.2c1.7-1.3,7.1-5.7,12.7-11.3C194.5,32,196.4,28.3,196.4,25.1z"/>
				</g>
			</g>
			<g class="st19">
				<g>
					<path class="st24" d="M171.7,143.2c-0.9,7.8-3.3,15.3-6.3,18.5c5.8-3,11.5,5.8,11.5,5.8s-20.8,10-24.3,14.2
						c-3.5,4.3,2,4.5,7.8,3.8c5.8-0.7,16-0.5,16-0.5c13.5-1.7,30.4-30.5,29.9-42.8c-0.5-12.3-23.3-27.6-23.3-27.6s-3.7,6.6-5.3,12.3
						C176.2,132.6,174.6,139.5,171.7,143.2z"/>
					<path class="st25" d="M151,184c0-0.7,0.4-1.6,1.2-2.6c3.3-4,20.6-12.5,24-14.1c-1.3-1.7-6-7.5-10.5-5.1l-2.6,1.3l2-2.1
						c2.8-3,5.2-10.2,6.2-18.3l0-0.1l0.1-0.1c2.4-3.1,3.9-8.4,5.2-13.5c0.2-0.9,0.5-1.8,0.7-2.6c1.6-5.7,5.3-12.3,5.3-12.4l0.3-0.5
						l0.5,0.3c0.9,0.6,23,15.6,23.5,28c0.5,12.6-16.5,41.6-30.3,43.3c-0.2,0-10.4-0.3-16,0.5c-4.7,0.6-7.6,0.4-8.8-0.7
						C151.2,185,151,184.6,151,184z M177.7,167.7l-0.5,0.2c-0.2,0.1-20.8,10-24.2,14.1c-0.8,1-1,1.6-1,1.9c0,0.2,0.1,0.4,0.3,0.6
						c0.9,0.8,3.8,1,8,0.4c5.7-0.7,16-0.5,16.1-0.5c13-1.7,29.9-30.4,29.4-42.3c-0.4-10.9-19.4-24.7-22.6-26.9
						c-0.9,1.6-3.7,7-5,11.7c-0.2,0.9-0.5,1.7-0.7,2.6c-1.4,5.1-2.8,10.4-5.3,13.7c-0.9,7.3-2.9,13.7-5.3,17.3
						c5.5-1,10.3,6.2,10.5,6.5L177.7,167.7z"/>
				</g>
			</g>
			<g class="st19">
				<g>
					<path class="st26" d="M149.2,150.2c-10.9,5-22.9,2-26.8-6.7c-3.9-8.7,1.7-19.7,12.6-24.7c10.9-5,22.9-2,26.8,6.7
						C165.7,134.2,160.1,145.2,149.2,150.2z"/>
				</g>
				<g>
					<path class="st27" d="M148.7,148.8c-9.7,4.4-20.3,1.7-23.8-5.9c-3.5-7.7,1.5-17.5,11.1-21.9c9.7-4.4,20.3-1.7,23.8,5.9
						C163.3,134.6,158.4,144.4,148.7,148.8z"/>
					<path d="M148.8,147.8c-6.9,2.9-14.8,3.1-20.7-1.9c-9.4-8-0.3-19.9,7.9-24c6.6-3.3,15-2.9,20.7,1.9
						C166.1,131.8,157,143.7,148.8,147.8c-0.5,0.3-0.6,2.2-0.2,1.9c7.2-3.5,14.3-11.4,12.6-20.1c-2.3-11.9-15.5-13.7-25.1-9.7
						c-7.3,3.1-14.2,11.7-12.6,20.1c2.3,11.9,15.5,13.7,25.1,9.7C149.2,149.5,149.3,147.6,148.8,147.8z"/>
				</g>
				<path d="M147.2,143.8c-6.2,3.3-13.5,2-16.1-3c-2.7-5,0.3-11.7,6.5-15c6.2-3.3,13.5-2,16.1,3
					C156.3,133.8,153.4,140.5,147.2,143.8z"/>
				<path class="st27" d="M149.2,141.2c-2.4,1.5-5.2,1.5-6.2-0.2c-1.1-1.6,0-4.2,2.4-5.8c2.4-1.5,5.2-1.5,6.2,0.2
					C152.6,137,151.5,139.6,149.2,141.2z"/>
			</g>
			<g class="st19">
				<g>
					<path class="st26" d="M137.6,66.9c-11.2-2.8-18.4-12.2-16.2-21.1c2.2-8.9,13.1-13.8,24.2-11.1c11.2,2.8,18.4,12.2,16.2,21.1
						C159.6,64.8,148.8,69.7,137.6,66.9z"/>
				</g>
				<g>
					<path class="st27" d="M138,65.2c-10-2.5-16.5-11-14.5-18.9c2-8,11.7-12.4,21.7-9.9c10,2.5,16.5,11,14.5,18.9
						C157.7,63.3,148,67.7,138,65.2z"/>
					<path d="M138.3,64.3c-7.2-2-13.8-7-14.7-14.9c-1.2-11.3,13.6-13.6,21.2-11.9c7.2,1.6,13.9,7.4,14.7,14.9
						C160.8,63.7,146,65.9,138.3,64.3c-0.6-0.1-1.1,1.8-0.6,1.9c9.2,2,19.4-1,22.4-10.7c3-9.7-6.2-17.6-14.6-20
						c-9.1-2.6-19.5,1.4-22.4,10.7c-3,9.7,6.2,17.6,14.6,20C138.3,66.4,138.9,64.4,138.3,64.3z"/>
				</g>
				<path d="M140.4,62c-6.8-1-11.6-6.3-10.8-11.7c0.8-5.4,7-8.9,13.8-7.9c6.8,1,11.6,6.3,10.8,11.7C153.4,59.5,147.2,63,140.4,62z"
					/>
				<path class="st27" d="M145.4,60.2c-2.8-0.1-5-1.7-4.9-3.6c0.1-1.9,2.4-3.3,5.1-3.2c2.8,0.1,5,1.7,4.9,3.6
					C150.5,58.8,148.2,60.3,145.4,60.2z"/>
			</g>
			<g class="st19">
				
					<radialGradient id="SVGID_13_" cx="116.888" cy="-17.8804" r="62.4965" gradientTransform="matrix(-1.690250e-03 1 -1 -1.690250e-03 87.3036 -22.774)" gradientUnits="userSpaceOnUse">
					<stop  offset="8.695390e-02" style="stop-color:#373737"/>
					<stop  offset="0.4481" style="stop-color:#303031"/>
					<stop  offset="0.9817" style="stop-color:#1C1E21"/>
					<stop  offset="1" style="stop-color:#1B1D20"/>
				</radialGradient>
				<path class="st28" d="M109.1,152.3c7.6-8.5,14.6-17.4,23.2-25.2c7.8-7,16.8-13.5,16.4-35.6c-0.5-24.3-31.5-41.9-45-52.7
					c-9-7.2-18.5-16.2-22.8-19.7c0,0-11.4-6.9-17.4,6.2c-6.2,16.5,2.8,26.1,2.8,26.1c-5,4.1-4.8,6.9-1.3,17.7
					c3.5,10.8,0.4,32.3-1.8,47.1c-2.3,14.8,0.5,23.6,6,26.8c-5,11.8,2.4,27,14.2,27.8c6.6,0.5,15.4-7.7,19.6-11.9
					C105,156.8,107.1,154.5,109.1,152.3z"/>
			</g>
			<g class="st19">
				<path d="M127,100.1c0,0,5.1-23-4.7-25.8c-9.8-2.8-17.5,5.2-16.7,15.6C106.5,100.3,122.9,116.9,127,100.1z"/>
				<g>
					<path class="st27" d="M124,102.3c0,0-2.9-0.8-4.5-2.9c-2.6,3.7-4.4,3.8-4.4,3.8S120.2,110.3,124,102.3z"/>
					<path class="st27" d="M117.1,98.3c0,0-4.6-3.9-6.3-8.6c-1.7-4.7-2.3,4.6,3,11.4L117.1,98.3z"/>
				</g>
			</g>
			<g class="st19">
				<path d="M87.5,62.8c-0.3,0-0.5-0.2-0.5-0.5c0-0.3,0.2-0.5,0.5-0.5c0.3,0,0.5,0.2,0.5,0.5C88,62.6,87.8,62.8,87.5,62.8z"/>
				<path d="M89,51.9c-0.3,0-0.5-0.2-0.5-0.5c0-0.3,0.2-0.5,0.5-0.5c0.3,0,0.5,0.2,0.5,0.5C89.5,51.7,89.3,51.9,89,51.9z"/>
				<path d="M83.9,43.5c-0.3,0-0.5-0.2-0.5-0.5c0-0.3,0.2-0.5,0.5-0.5c0.3,0,0.5,0.2,0.5,0.5C84.4,43.3,84.2,43.5,83.9,43.5z"/>
				<path d="M88.6,57.2c-0.3,0-0.6-0.3-0.6-0.6c0-0.3,0.3-0.6,0.6-0.6c0.3,0,0.6,0.3,0.6,0.6C89.2,56.9,89,57.2,88.6,57.2z"/>
				<path d="M89,46c-0.3,0-0.6-0.3-0.6-0.6c0-0.3,0.3-0.6,0.6-0.6c0.3,0,0.6,0.3,0.6,0.6C89.6,45.8,89.4,46,89,46z"/>
			</g>
			<g class="st19">
				<path d="M86,144.6c-0.3,0-0.5-0.2-0.5-0.5c0-0.3,0.2-0.5,0.5-0.5c0.3,0,0.5,0.2,0.5,0.5C86.5,144.3,86.2,144.6,86,144.6z"/>
				<path d="M95.4,137.2c-0.3,0-0.5-0.2-0.5-0.5c0-0.3,0.2-0.5,0.5-0.5c0.3,0,0.5,0.2,0.5,0.5C95.9,137,95.7,137.2,95.4,137.2z"/>
				<path d="M88.5,122.6c-0.3,0-0.5-0.2-0.5-0.5c0-0.3,0.2-0.5,0.5-0.5c0.3,0,0.5,0.2,0.5,0.5C89,122.4,88.8,122.6,88.5,122.6z"/>
				<path d="M98,120.5c-0.3,0-0.5-0.2-0.5-0.5c0-0.3,0.2-0.5,0.5-0.5c0.3,0,0.5,0.2,0.5,0.5C98.5,120.3,98.3,120.5,98,120.5z"/>
				<path d="M94.4,143.1c-0.3,0-0.6-0.3-0.6-0.6c0-0.3,0.3-0.6,0.6-0.6c0.3,0,0.6,0.3,0.6,0.6C95,142.8,94.7,143.1,94.4,143.1z"/>
				<path d="M85,135.9c-0.3,0-0.6-0.3-0.6-0.6c0-0.3,0.3-0.6,0.6-0.6c0.3,0,0.6,0.3,0.6,0.6C85.6,135.6,85.3,135.9,85,135.9z"/>
			</g>
			<g class="st19">
				<g>
					<path d="M66.3,51.3c0,0,1,1.2,2.6,3.3c1.6,2.2,3.9,5.3,6.3,9.3c1.2,2,2.4,4.2,3.7,6.5c0.6,1.2,1.2,2.4,1.8,3.7
						c0.5,1.3,1.1,2.6,1.6,4c0.5,1.4,1,2.8,1.4,4.2c0.2,0.7,0.4,1.5,0.6,2.2c0.1,0.8,0.3,1.5,0.4,2.3c0.2,0.8,0.2,1.5,0.3,2.3
						c0,0.8,0.2,1.5,0.1,2.3l0,2.3c0,0.8-0.1,1.6-0.2,2.3c-0.3,3.1-1,6.2-1.9,9.1c-0.9,2.9-2,5.7-3.1,8.4c-1.1,2.7-2.2,5.2-3.2,7.7
						c-1,2.4-1.9,4.8-2.7,6.9c-0.8,2.2-1.5,4.2-2.1,6c-0.6,1.8-1.1,3.4-1.4,4.7c-0.7,2.6-1.2,4.1-1.2,4.1s0.4-1.5,1-4.1
						c0.3-1.3,0.8-2.9,1.3-4.7c0.6-1.8,1.1-3.9,1.9-6c0.7-2.2,1.6-4.6,2.6-7c1-2.5,2-5.1,3.1-7.8c1.1-2.7,2.1-5.5,3-8.4
						c0.9-2.9,1.5-5.9,1.8-8.9c0.1-0.8,0.2-1.5,0.2-2.3l0.1-2.3c0-0.7-0.1-1.5-0.1-2.2c0-0.8-0.1-1.5-0.2-2.2
						c-0.1-0.7-0.3-1.5-0.4-2.2c-0.1-0.7-0.4-1.4-0.5-2.2c-0.3-1.4-0.9-2.8-1.3-4.2c-0.5-1.4-1.1-2.6-1.5-3.9
						c-0.6-1.3-1.1-2.5-1.7-3.7c-1.2-2.4-2.3-4.6-3.5-6.6c-2.3-4-4.4-7.2-5.9-9.5C67.2,52.6,66.3,51.3,66.3,51.3z"/>
					<path d="M105.9,90.9c0,0-0.3,0.1-0.9,0.2c-0.6,0.1-1.4,0.2-2.4,0.4c-2,0.3-4.7,0.5-7.3,0.6c-1.3,0-2.7,0.1-3.9,0
						c-1.3,0-2.4-0.1-3.4-0.2c-0.5,0-1-0.1-1.4-0.2c-0.4-0.1-0.8-0.2-1-0.2c-0.3,0-0.5-0.2-0.6-0.2c-0.1-0.1-0.2-0.1-0.2-0.1
						s0.1,0,0.2,0.1c0.2,0,0.4,0.1,0.7,0.1c0.3,0,0.6,0.1,1,0c0.4,0,0.9,0,1.4,0c2,0,4.7-0.2,7.3-0.3c2.7-0.1,5.3-0.2,7.3-0.2
						c1,0,1.8,0,2.4,0C105.5,90.9,105.9,90.9,105.9,90.9z"/>
				</g>
				<path d="M132,31.6c0,0-0.4,0-1.1,0.1c-0.3,0.1-0.7,0.1-1.2,0.3c-0.4,0.1-0.9,0.3-1.5,0.6c-0.3,0.1-0.5,0.3-0.8,0.4
					c-0.3,0.1-0.5,0.3-0.8,0.5c-0.5,0.3-1,0.8-1.5,1.3c-0.3,0.2-0.4,0.5-0.7,0.8c-0.2,0.3-0.5,0.6-0.6,0.9c-0.2,0.3-0.4,0.6-0.6,0.9
					c-0.2,0.3-0.3,0.7-0.5,1c-0.1,0.3-0.3,0.7-0.4,1c-0.1,0.4-0.2,0.7-0.3,1.1c-0.1,0.4-0.2,0.7-0.3,1.1c-0.1,0.4-0.1,0.7-0.2,1.1
					c-0.1,0.7-0.3,1.4-0.3,2c-0.1,0.7-0.1,1.3-0.2,1.9c-0.1,0.6,0,1.1-0.1,1.6c0,0.5,0,0.9,0,1.2c0,0.7,0,1.1,0,1.1
					s-0.1-0.4-0.2-1.1c0-0.3-0.1-0.7-0.2-1.2c0-0.5-0.2-1-0.1-1.6c0-0.6,0-1.2,0-1.9c0-0.7,0.1-1.4,0.2-2.1c0-0.4,0.1-0.7,0.1-1.1
					c0.1-0.4,0.2-0.7,0.3-1.1c0.1-0.4,0.2-0.8,0.3-1.1c0.1-0.4,0.3-0.7,0.4-1.1c0.2-0.4,0.3-0.7,0.5-1.1c0.2-0.3,0.4-0.7,0.6-1
					c0.2-0.4,0.5-0.6,0.7-0.9c0.3-0.3,0.5-0.6,0.8-0.8c0.3-0.2,0.6-0.5,0.9-0.7c0.3-0.2,0.6-0.4,0.9-0.6c0.3-0.2,0.6-0.4,0.9-0.5
					c0.3-0.1,0.6-0.3,0.9-0.4c0.6-0.2,1.1-0.3,1.6-0.4c0.5-0.1,0.9-0.1,1.2-0.1C131.6,31.5,132,31.6,132,31.6z"/>
				<path d="M122.5,136.5c0,0,0,0.3-0.1,1c0,0.6,0,1.5,0,2.5c0,0.5,0.1,1.1,0.1,1.6c0,0.6,0.2,1.2,0.3,1.8c0.1,0.6,0.3,1.2,0.5,1.9
					c0.2,0.6,0.4,1.3,0.7,1.9l0.4,0.9c0.2,0.3,0.3,0.6,0.5,0.9c0.3,0.6,0.7,1.1,1.1,1.6c0.4,0.5,0.8,0.9,1.2,1.3
					c0.4,0.4,0.8,0.8,1.2,1.1c0.4,0.3,0.7,0.7,1.1,0.9c0.4,0.2,0.7,0.4,0.9,0.6c0.5,0.3,0.8,0.5,0.8,0.5s-0.3-0.1-0.9-0.4
					c-0.3-0.1-0.6-0.3-1-0.4c-0.4-0.2-0.8-0.4-1.2-0.7c-0.4-0.3-0.9-0.6-1.4-1c-0.4-0.4-1-0.8-1.4-1.3c-0.4-0.5-0.9-1-1.3-1.6
					c-0.2-0.3-0.4-0.6-0.6-0.9l-0.5-1c-0.3-0.6-0.5-1.3-0.7-2c-0.2-0.7-0.3-1.4-0.4-2c-0.2-1.3-0.2-2.6-0.1-3.6
					c0.1-1.1,0.2-1.9,0.4-2.5C122.4,136.8,122.5,136.5,122.5,136.5z"/>
				<path d="M140,86.5c0,0-0.1-0.5-0.2-1.5c-0.1-0.9-0.4-2.3-0.7-3.9c-0.2-0.8-0.4-1.7-0.6-2.6c-0.2-0.9-0.5-1.8-0.8-2.8
					c-0.3-1-0.7-1.9-1-3c-0.4-1-0.8-2-1.3-3c-0.5-1-0.9-2-1.5-2.8c-0.3-0.5-0.5-0.9-0.8-1.4c-0.3-0.5-0.6-0.8-0.9-1.3
					c-0.3-0.4-0.6-0.8-0.9-1.2c-0.3-0.4-0.6-0.7-0.9-1.1c-0.6-0.7-1.2-1.4-1.8-1.9c-0.6-0.5-1.1-1.1-1.6-1.5c-0.5-0.4-1-0.7-1.4-1
					c-0.8-0.6-1.2-0.9-1.2-0.9s0.5,0.3,1.3,0.8c0.4,0.3,0.9,0.6,1.5,0.9c0.5,0.4,1.1,0.9,1.8,1.4c0.7,0.5,1.3,1.2,2,1.8
					c0.3,0.3,0.7,0.7,1,1.1c0.3,0.4,0.6,0.8,0.9,1.2c0.7,0.8,1.3,1.7,1.8,2.6c0.6,0.9,1.1,1.9,1.6,2.9c0.5,1,0.9,2,1.3,3
					c0.3,1,0.7,2,1,3c0.3,1,0.5,2,0.7,2.9c0.2,0.9,0.3,1.8,0.5,2.6c0.2,1.6,0.3,3,0.4,4C140,85.9,140,86.5,140,86.5z"/>
				<path d="M140.4,100.8c0,0,0.1,0.5,0.1,1.5c0,0.5,0,1,0,1.7c0,0.6-0.1,1.4-0.2,2.2c-0.1,0.8-0.2,1.6-0.4,2.6
					c-0.2,0.9-0.4,1.9-0.6,2.8c-0.3,1-0.6,2-1,2.9c-0.2,0.5-0.4,1-0.6,1.5l-0.7,1.5c-0.4,1-1,1.9-1.5,2.8c-0.5,0.9-1.2,1.7-1.7,2.6
					c-0.5,0.8-1.2,1.5-1.8,2.3c-0.6,0.7-1.2,1.3-1.8,1.9c-0.6,0.6-1.1,1.1-1.6,1.5c-0.5,0.4-0.9,0.8-1.3,1.1
					c-0.7,0.6-1.1,0.9-1.1,0.9s0.4-0.4,1-1.1c0.3-0.3,0.7-0.7,1.2-1.2c0.5-0.4,0.9-1,1.4-1.6c0.5-0.6,1.1-1.2,1.6-2
					c0.5-0.7,1.1-1.5,1.6-2.3c0.5-0.8,1.1-1.7,1.6-2.6c0.5-0.9,1-1.8,1.4-2.8l0.7-1.4c0.2-0.5,0.4-1,0.6-1.4c0.4-0.9,0.7-1.9,1-2.8
					c0.3-0.9,0.5-1.9,0.8-2.7c0.2-0.9,0.4-1.7,0.5-2.5c0.3-1.5,0.5-2.9,0.5-3.8C140.4,101.3,140.4,100.8,140.4,100.8z"/>
				<path d="M169.6,48.2c0,0,0,0.1-0.1,0.4c0,0.3-0.1,0.7-0.1,1.2c-0.1,0.5,0,1.2,0,1.9c0,0.4,0.1,0.8,0.1,1.2
					c0,0.4,0.1,0.8,0.2,1.3c0.1,0.4,0.2,0.9,0.3,1.4c0.1,0.5,0.3,0.9,0.4,1.4c0.2,0.5,0.3,1,0.5,1.5c0.2,0.5,0.4,1,0.6,1.5
					c0.2,0.5,0.4,1.1,0.7,1.6l0.3,0.8l0.3,0.9c0.4,1.2,0.5,2.4,0.6,3.7c0,1.3-0.1,2.5-0.4,3.7c-0.1,0.3-0.1,0.6-0.2,0.9l-0.3,0.9
					c-0.2,0.6-0.5,1.1-0.7,1.6c-0.2,0.5-0.5,1-0.8,1.5c-0.3,0.5-0.6,0.9-0.9,1.4c-0.6,0.9-1.3,1.6-1.9,2.3c-0.6,0.7-1.3,1.2-1.8,1.7
					c-0.6,0.5-1.1,0.9-1.5,1.2c-0.9,0.6-1.4,0.9-1.4,0.9s0.5-0.4,1.3-1.1c0.4-0.3,0.9-0.8,1.4-1.3c0.3-0.3,0.5-0.6,0.8-0.9
					c0.3-0.3,0.6-0.6,0.9-1c0.6-0.7,1.2-1.5,1.7-2.3c0.5-0.9,1.1-1.8,1.5-2.8c0.4-1,0.8-2.1,1-3.3c0.3-1.1,0.3-2.3,0.3-3.5
					c-0.1-1.2-0.2-2.4-0.5-3.5l-0.2-0.8l-0.3-0.8c-0.2-0.5-0.4-1.1-0.6-1.6c-0.2-0.5-0.4-1.1-0.6-1.6c-0.2-0.5-0.3-1.1-0.4-1.6
					c-0.1-0.5-0.3-1-0.3-1.5c-0.1-0.5-0.1-1-0.2-1.4c-0.2-0.9-0.1-1.8-0.1-2.5c0.1-0.7,0.1-1.4,0.2-1.9c0.1-0.5,0.2-0.9,0.2-1.2
					C169.6,48.3,169.6,48.2,169.6,48.2z"/>
				<path d="M164,101.3c0,0,0.6,0,1.6,0.2c0.5,0.1,1.1,0.3,1.7,0.6c0.7,0.2,1.4,0.6,2.1,1.1c0.4,0.2,0.7,0.5,1.1,0.8
					c0.3,0.3,0.7,0.7,1,1.1c0.3,0.4,0.7,0.8,0.9,1.3c0.3,0.4,0.5,1,0.7,1.5c0.4,1,0.6,2.2,0.8,3.4c0.1,1.2,0.1,2.3,0,3.5
					c-0.1,1.2-0.3,2.3-0.5,3.5c-0.2,1.1-0.5,2.2-0.9,3.3c-0.3,1-0.7,2-1,3c-0.4,0.9-0.7,1.8-1.1,2.6c-1.4,3.2-2.7,5.1-2.7,5.1
					s0.2-0.5,0.6-1.5c0.4-0.9,0.9-2.3,1.6-3.9c0.3-0.8,0.6-1.7,0.9-2.6c0.3-0.9,0.6-1.9,0.9-3c0.3-1,0.5-2.1,0.8-3.2
					c0.2-1.1,0.4-2.2,0.5-3.3c0-0.6,0.1-1.1,0.1-1.7c0-0.6,0-1.2,0-1.7c-0.1-1.1-0.3-2.2-0.6-3.1c-0.2-0.5-0.4-1-0.6-1.4
					c-0.2-0.5-0.5-0.9-0.8-1.2c-0.3-0.4-0.6-0.7-0.9-1.1c-0.3-0.3-0.7-0.6-1-0.9c-0.7-0.5-1.3-0.9-2-1.2c-0.6-0.3-1.2-0.5-1.7-0.7
					C164.6,101.4,164,101.3,164,101.3z"/>
				<path d="M174.5,95.6c0,0,0.1,0,0.2,0.1c0.1,0.1,0.3,0.1,0.5,0.3c0.2,0.1,0.5,0.3,0.7,0.6c0.3,0.3,0.6,0.6,0.8,0.9
					c0.3,0.4,0.5,0.8,0.7,1.3c0.1,0.2,0.2,0.5,0.3,0.7c0.1,0.3,0.2,0.5,0.3,0.8c0.2,0.5,0.3,1.1,0.4,1.7c0.1,0.6,0.1,1.2,0.2,1.8
					c0,0.6,0,1.2,0,1.8c0,0.6-0.1,1.1-0.1,1.7c0,0.6-0.1,1.1-0.2,1.6c-0.1,0.5-0.2,1-0.3,1.4c-0.2,0.9-0.4,1.5-0.6,2
					c-0.1,0.5-0.2,0.8-0.2,0.8s0-0.3,0.1-0.8c0-0.5,0.1-1.2,0.2-2.1c0-0.9,0.2-1.9,0.2-2.9c0.1-1.1,0.1-2.2,0-3.3
					c-0.1-0.6-0.1-1.1-0.1-1.7c-0.1-0.5-0.1-1.1-0.3-1.6c-0.1-0.5-0.2-1-0.4-1.5c-0.2-0.5-0.3-0.9-0.5-1.2c-0.2-0.4-0.4-0.7-0.6-1
					c-0.2-0.3-0.4-0.5-0.6-0.7C174.8,95.7,174.5,95.6,174.5,95.6z"/>
				<path d="M174.6,85.3c0,0,0.3-0.3,0.8-0.9c0.2-0.3,0.5-0.7,0.7-1.1c0.2-0.5,0.5-1,0.7-1.6c0.2-0.6,0.4-1.3,0.6-1.9
					c0.2-0.7,0.3-1.5,0.4-2.2c0.1-0.8,0.2-1.6,0.3-2.4c0.1-0.8,0-1.7,0.1-2.5c0-0.8-0.1-1.7-0.1-2.5c0-0.8-0.1-1.7-0.2-2.5
					c-0.1-0.8-0.1-1.6-0.2-2.3c-0.1-0.7-0.2-1.4-0.3-2.1c-0.1-0.6-0.2-1.2-0.3-1.7c-0.1-0.5-0.2-1-0.2-1.3c-0.1-0.7-0.2-1.2-0.2-1.2
					s0.1,0.4,0.4,1.1c0.1,0.4,0.2,0.8,0.4,1.3c0.1,0.5,0.3,1.1,0.5,1.7c0.1,0.6,0.3,1.3,0.4,2c0.2,0.7,0.3,1.5,0.4,2.3
					c0.1,0.8,0.3,1.6,0.3,2.5c0,0.9,0.1,1.7,0.1,2.6c0,0.9,0,1.7-0.1,2.6c-0.1,0.9-0.2,1.7-0.4,2.5c-0.1,0.8-0.4,1.6-0.6,2.3
					c-0.3,0.7-0.5,1.4-0.8,2c-0.3,0.6-0.6,1.1-0.9,1.5c-0.3,0.4-0.6,0.8-0.9,1.1c-0.3,0.3-0.5,0.5-0.7,0.6
					C174.7,85.2,174.6,85.3,174.6,85.3z"/>
			</g>
			<path class="st29" d="M177.8,126.9c0,0-1.3,11-6,16.3c-0.3,7.3-3.3,16-6.3,18.5c5.8-1.2,9.5,2.5,11.5,5.8
				c13.8-9.5,21.1-16.5,21.9-23.8C199.6,136.5,185.8,128.2,177.8,126.9z"/>
			<path class="st29" d="M175.6,45.2c0,0,10.3-9.3,4.1-23.1C173.4,8.3,158.4,2,158.4,2s0.7,6.5-17.6,16.8
				C140.8,18.8,168.1,30.6,175.6,45.2z"/>
			<g class="st19">
				<path class="st22" d="M74,124.4c0,0,3.5,4.2,8.7,7.4C75,133.3,67.5,133.4,74,124.4z"/>
				<path d="M71,129.8c0-1.4,0.9-3.3,2.6-5.7l0.4-0.5l0.4,0.5c0,0,3.5,4.2,8.6,7.3l1.1,0.7l-1.3,0.2c-5.8,1.1-9.2,1-10.8-0.3
					C71.4,131.5,71,130.7,71,129.8z M74.1,125.2c-2.1,3-2.6,5-1.4,6c1.2,1,4.1,1.1,8.7,0.3C77.7,129.1,75.1,126.3,74.1,125.2z"/>
			</g>
			<g class="st19">
				<path class="st22" d="M74.1,63.7c0,0,2.7-8.4,5.2-11.5C71.2,50.9,66.1,58.2,74.1,63.7z"/>
				<path d="M69.6,57.6L69.6,57.6c0-1.6,0.7-3.1,2-4.2c1.9-1.6,4.7-2.2,7.8-1.7l0.8,0.1l-0.5,0.7c-2.4,3.1-5.1,11.3-5.1,11.4
					l-0.2,0.6l-0.6-0.4C71.1,62.2,69.6,59.9,69.6,57.6z M78.4,52.6c-2.4-0.2-4.7,0.3-6.2,1.6c-1.1,0.9-1.7,2.1-1.7,3.4l0,0
					c0,1.8,1.2,3.7,3.3,5.3C74.5,61,76.5,55.6,78.4,52.6z"/>
			</g>
			<path class="st30" d="M119.2,69.4c0,0-9.5-1.8-14.8,9.8c-2.1,4.5-5.3,7.7-10.3,7.5c-5.7-0.2-7-3.2-8.8-8.1
				C83.4,73,77.8,66.9,77.5,61c-0.2-3.6,2.4-7.7,4.8-10.2c0,0-3-2.3-9.8-1.5c-6.8,0.7-8.8-13.1-5-19.3c3.8-6.3,10-9.5,24.1,4.8
				c14,14.3,21.5,17.1,31,25.6C132.2,68.9,129.7,71.7,119.2,69.4z"/>
			<path class="st30" d="M126.9,115.6c0,0-13-1.3-20.8-13.8c-5.5-8.8-9.3-9.3-14-5.3c-3.3,2.8-5.8,12.8-9.6,20.8
				c-3.8,8-2.5,9.8,3.7,13.8c6.3,4-4,4-7.5,4.5c-3.5,0.5-8,12.5-6.3,19.3c1.7,6.8,14.8,14.8,30.8-2.2
				C119.3,135.6,134.4,118.6,126.9,115.6z"/>
			<path class="st30" d="M130.9,76.4c0,0,5.5,10.9,0,27.2c-4.7,12.9,8,5.4,8-10C138.9,78.2,130.4,71.2,130.9,76.4z"/>
			<path class="st30" d="M140.8,77.7c0,0,3.2,10.2,1,28.8c-2.2,7.2,4.5,5,5.4-9.9C148,81.7,139.8,70.5,140.8,77.7z"/>
			<path class="st30" d="M74.8,70.4c0,0,13.2,19.9,1.4,43c-6,10.4-7,14.4-7.1,17.5c0,3.2-7.9,1.8-4-13.9c3.9-15.7,5.4-34.1,1.4-47.1
				C63.1,58,69.5,61.7,74.8,70.4z"/>
			<path class="st31" d="M184.2,72.5c0,0,4.5,13.3,1,23.6C181.6,106.4,180.2,68.5,184.2,72.5z"/>
			<path class="st32" d="M184.2,22.9c0,0-12.2-22.3-36.3-26.9c-10-1.3,2.3-10.3,17.8-2.5c15.5,7.8,14.5,18.6,22.3,25.1
				C195.7,25.2,190,30.9,184.2,22.9z"/>
			<path class="st32" d="M195.3,158.5c0,0-7.5,9-23.8,15.3c-16.3,6.2-17.8,9.5-2.5,9.3c15.3-0.2,17.6-5.7,23.3-13
				C198,162.8,201.5,151.5,195.3,158.5z"/>
			<path class="st33" d="M183.3,123.9c0,0,11.8,6.5,17,12.8c5.3,6.3,1.8-2-6.5-11C185.5,116.7,182,120.7,183.3,123.9z"/>
			<path class="st33" d="M186.7,36.7c0,0-3.5,6.3-5.5,6.5C179.2,43.4,186.7,32.2,186.7,36.7z"/>
			<path class="st34" d="M172.6,34.6c0,0-18-13.1-23-14.1c6.7-5,7.7-13,12.1-12.3C166,8.9,182.7,25,172.6,34.6z"/>
			<path class="st34" d="M178.8,133.6c0,0-0.7,5.7-3.7,10.7c-3,5-2.7,12.4,0.6,15.4c3.3,3,10.4-2,15.4-10
				C196.2,141.7,188.9,133.3,178.8,133.6z"/>
		</g>
	</g>
	<path class="st35" d="M37.6,44.7c-0.6,0-1.1-0.7-1.7-2c-0.4-0.8-0.7-1.8-1-2.9c-0.5,0.1-1.4,0.2-2.6,0.2c-1.1,0.1-2,0.2-2.6,0.3
		c-0.3,0.8-0.9,2-1.7,3.6c-0.3,0.5-0.8,0.8-1.3,0.8c-0.4,0-0.7-0.1-1.1-0.4c-0.3-0.3-0.5-0.6-0.5-1c0-0.4,0.5-1.6,1.6-3.7
		c-0.1-0.2-0.1-0.4-0.1-0.6c0-0.3,0.4-0.6,1-0.8c1-1.8,2.1-3.6,3.4-5.5c1.8-2.7,2.9-4.1,3.3-4.1c0.8,0,1.3,0.5,1.6,1.4
		c0.1,0.8,0.4,1.9,0.7,3.4c0.4,2.1,1,4.4,1.6,7.1c0,0.2,0.2,0.7,0.5,1.4c0.3,0.6,0.4,1.1,0.4,1.4c0,0.4-0.2,0.8-0.5,1
		S38,44.7,37.6,44.7z M33.6,33.7c-0.6,1-1.3,2.3-2.3,3.9c0.3-0.1,0.8-0.1,1.5-0.2c0.8,0,1.3-0.1,1.5-0.1
		C34.1,36.4,33.9,35.2,33.6,33.7z"/>
	<path class="st35" d="M27.3,66.5c-0.4,0-0.8-0.2-1.1-0.4c-0.3-0.3-0.4-0.6-0.4-1c0-0.7,0-1.8,0.1-3.2c0.1-1.4,0.1-2.5,0.1-3.2
		c0-0.8,0-2,0-3.6s0-2.8,0-3.6c0-0.4,0.2-0.8,0.6-1.2c0.4-0.4,0.8-0.6,1.2-0.6c0.2,0,0.8,0.2,1.8,0.7c1.1,0.5,1.8,0.8,2,0.9
		c2.1,0.7,3.9,1.7,5.4,3.2c1.8,1.7,2.7,3.6,2.7,5.6c0,1.2-0.3,2.4-0.9,3.5c-0.6,1.1-1.4,2.1-2.5,2.7c-1.2,0.8-2.9,1.2-5,1.2
		c-0.5,0-1.1-0.1-1.8-0.2C28.4,67,27.7,66.8,27.3,66.5z M33.3,55.5c-0.7-0.4-2.2-1.1-4.5-2.1V64c0.3,0.2,0.6,0.3,1,0.4
		c0.4,0.1,0.8,0.1,1.2,0.1c1.5,0,2.7-0.2,3.3-0.6c0.6-0.4,1.1-1,1.5-1.7c0.4-0.7,0.6-1.4,0.6-2.2C36.4,58.3,35.4,56.8,33.3,55.5z"/>
	<path class="st27" d="M31.8,89.1c-2.1,0-3.9-0.6-5.4-1.8c-1.6-1.3-2.4-3-2.4-5.1c0-2.4,0.8-4.7,2.3-6.7c1.7-2.3,3.9-3.4,6.5-3.4
		c2.5,0,4.4,0.6,5.6,1.7s1.9,2.9,1.9,5.2c0,2.4-0.7,4.6-2.1,6.6C36.6,87.9,34.4,89.1,31.8,89.1z M32.8,75c-1.6,0-3,0.8-4.1,2.3
		c-1.1,1.4-1.6,3.1-1.6,4.8c0,1.2,0.5,2.2,1.4,2.9c0.9,0.7,2,1.1,3.4,1.1c1.6,0,2.9-0.8,3.9-2.3c1-1.4,1.5-3,1.5-4.8
		c0-1.5-0.3-2.5-1-3.1C35.6,75.3,34.4,75,32.8,75z"/>
	<path class="st35" d="M30.8,104.4c-0.1,0-0.4,0-0.9-0.1c0,1-0.1,2.6-0.1,4.9c0,0.4-0.1,0.7-0.4,1c-0.3,0.3-0.6,0.4-1,0.4
		s-0.7-0.1-1-0.4s-0.4-0.6-0.4-1v-3c0-1.1,0.1-2.8,0.2-4.9c0.1-2.2,0.2-3.9,0.2-5c0-1.9,0.5-2.8,1.6-2.7c0.2-0.1,0.6-0.1,1-0.1
		c0.4,0,1,0,1.6,0c1.4,0,2.7,0.5,4,1.4c1.4,1,2.1,2.3,2.1,3.7c0,1.8-0.7,3.3-2.2,4.4C34.1,103.9,32.5,104.4,30.8,104.4z M31.3,96.3
		c-0.2,0-0.4,0-0.6,0c-0.2,0-0.3,0-0.4,0c0,0.3,0,0.8,0,1.5c0,0.8-0.1,2-0.2,3.7c0.4,0.1,0.6,0.1,0.7,0.1c1.1,0,2-0.3,2.8-0.8
		c0.8-0.6,1.2-1.3,1.2-2.2c0-0.6-0.4-1.1-1.1-1.6C32.9,96.5,32.1,96.3,31.3,96.3z"/>
	<path class="st35" d="M38.4,119.5c-0.6,0-1.4,0-2.6-0.1c-1.1-0.1-2-0.1-2.6-0.1c0,0.8,0.1,2.3,0.3,4.4c0.2,1.8,0.2,3.3,0.2,4.4
		c0,0.2,0,0.6,0.1,1.1c0,0.5,0.1,0.8,0.1,1.1c0,0.5-0.1,1-0.3,1.5c-0.3,0.6-0.7,0.8-1.3,0.8c-0.4,0-0.7-0.1-1-0.4
		c-0.3-0.3-0.5-0.6-0.5-1.1c0-0.1,0-0.3,0.1-0.5c0-0.2,0.1-0.4,0.1-0.5c0-0.3,0-0.8-0.1-1.5c0-0.7-0.1-1.2-0.1-1.5
		c0-1-0.1-2.3-0.2-3.9c-0.2-1.9-0.3-3.2-0.3-3.9h-0.6c-1.6,0-2.9-0.1-3.8-0.3c-0.8-0.2-1.2-0.7-1.2-1.4c0-0.4,0.1-0.7,0.4-1
		c0.3-0.4,0.7-0.5,1.2-0.5c0.3,0,0.8,0.1,1.7,0.2c0.7,0.1,1.3,0.1,1.7,0.1c0.4,0,1.1,0,2,0c0.9,0,1.5,0,2,0c0.5,0,1.4,0,2.4,0.1
		c1.1,0.1,1.9,0.1,2.4,0.1c0.4,0,0.8,0.1,1.1,0.4s0.4,0.6,0.4,1s-0.1,0.8-0.4,1C39.2,119.4,38.9,119.5,38.4,119.5z"/>
	<g>
		<g>
			<path class="st16" d="M23.5,81.8c0.3-3.1,3.2-6.3,9.3-5.8c6,0.5,8.4,4.1,8.1,7.3c-0.4,4.6-5.3,6.1-9.3,5.8
				C27.6,88.8,23.1,86.4,23.5,81.8z"/>
			<path class="st16" d="M30.4,71.2c0-0.9-0.2-1.7-0.9-2.4c-0.8-0.8-2-0.7-2.9-0.3c-0.4,0.2-0.8,0.5-1.1,0.9c-1,0.6-1.8,1.7-2.1,2.7
				c-0.3,1.1-0.1,2,0.6,2.8c0.6,0.8,2,0.8,2.9,0.7C28.9,75.2,30.5,73.3,30.4,71.2z"/>
			<path class="st16" d="M37.3,69.6c-0.4-0.1-0.8,0-1.2,0c-0.5-0.1-1.1,0-1.6,0.3c-1.7,0.9-2.8,3.5-1.1,5c1.5,1.3,3.8,0.4,5-0.8
				C39.8,72.5,39.5,70.1,37.3,69.6z"/>
			<path class="st16" d="M44.2,76.6c0.1-0.8-0.3-1.3-1-1.6c-0.6-0.3-1.2-0.1-1.7,0.1c0,0,0,0,0,0c0,0,0,0,0,0
				c-0.1,0-0.1,0.1-0.1,0.1c-0.6,0.3-1.1,0.9-1.3,1.5c-0.2,0.6,0,1.6,0.7,1.9c0.1,0,0.2,0,0.3,0.1c0.3,0.1,0.6,0.1,0.9,0
				c0.1,0,0.2-0.1,0.3-0.1C43.3,78.4,44.1,77.6,44.2,76.6z"/>
		</g>
	</g>
</g>
</svg>
