<?xml version="1.0" encoding="UTF-8"?>
<svg xmlns="http://www.w3.org/2000/svg" version="1.1" width="100" height="100" viewBox="0 0 100 100"><rect x="0" y="0" width="100" height="100" fill="#ffffff"/><g transform="scale(3.448)"><g transform="translate(0,0)"><path fill-rule="evenodd" d="M9 0L9 1L8 1L8 2L9 2L9 3L8 3L8 4L10 4L10 7L11 7L11 4L12 4L12 5L13 5L13 6L12 6L12 9L15 9L15 10L14 10L14 11L15 11L15 12L13 12L13 13L12 13L12 11L13 11L13 10L11 10L11 11L10 11L10 9L11 9L11 8L6 8L6 9L7 9L7 10L6 10L6 11L9 11L9 13L8 13L8 12L5 12L5 13L4 13L4 11L5 11L5 8L0 8L0 9L2 9L2 10L3 10L3 11L2 11L2 12L0 12L0 16L1 16L1 17L0 17L0 21L1 21L1 18L2 18L2 20L3 20L3 21L8 21L8 23L9 23L9 24L8 24L8 29L9 29L9 25L11 25L11 24L10 24L10 22L9 22L9 21L10 21L10 18L11 18L11 21L12 21L12 26L13 26L13 25L14 25L14 27L16 27L16 28L14 28L14 29L16 29L16 28L18 28L18 29L19 29L19 28L18 28L18 27L17 27L17 25L16 25L16 24L15 24L15 25L14 25L14 23L17 23L17 21L18 21L18 22L19 22L19 20L20 20L20 24L19 24L19 25L20 25L20 26L19 26L19 27L20 27L20 26L21 26L21 25L25 25L25 26L26 26L26 28L23 28L23 29L26 29L26 28L27 28L27 27L28 27L28 28L29 28L29 27L28 27L28 26L26 26L26 25L29 25L29 23L27 23L27 22L28 22L28 20L29 20L29 17L28 17L28 18L26 18L26 15L27 15L27 16L29 16L29 15L27 15L27 14L28 14L28 13L27 13L27 12L29 12L29 9L28 9L28 8L27 8L27 9L28 9L28 11L27 11L27 10L26 10L26 8L25 8L25 10L24 10L24 8L23 8L23 9L22 9L22 8L21 8L21 6L20 6L20 5L21 5L21 4L19 4L19 3L18 3L18 2L20 2L20 3L21 3L21 2L20 2L20 0L19 0L19 1L17 1L17 0L14 0L14 1L11 1L11 2L10 2L10 0ZM12 2L12 4L13 4L13 5L14 5L14 4L15 4L15 3L16 3L16 2L15 2L15 3L14 3L14 2ZM10 3L10 4L11 4L11 3ZM13 3L13 4L14 4L14 3ZM17 3L17 4L16 4L16 5L15 5L15 7L14 7L14 6L13 6L13 7L14 7L14 8L15 8L15 7L16 7L16 5L17 5L17 7L18 7L18 8L16 8L16 9L17 9L17 10L15 10L15 11L20 11L20 12L18 12L18 13L17 13L17 12L16 12L16 13L13 13L13 14L12 14L12 13L11 13L11 12L10 12L10 13L9 13L9 14L10 14L10 15L8 15L8 13L6 13L6 14L7 14L7 15L5 15L5 14L4 14L4 15L3 15L3 14L1 14L1 15L2 15L2 18L3 18L3 19L4 19L4 20L5 20L5 19L6 19L6 20L7 20L7 19L6 19L6 18L7 18L7 17L8 17L8 18L9 18L9 17L10 17L10 16L11 16L11 18L14 18L14 17L15 17L15 18L16 18L16 17L15 17L15 16L16 16L16 15L17 15L17 20L18 20L18 19L20 19L20 20L21 20L21 19L22 19L22 20L24 20L24 19L25 19L25 20L27 20L27 19L26 19L26 18L25 18L25 16L23 16L23 15L24 15L24 14L22 14L22 13L24 13L24 12L22 12L22 11L24 11L24 10L22 10L22 11L20 11L20 10L18 10L18 8L19 8L19 9L20 9L20 6L19 6L19 4L18 4L18 3ZM8 5L8 7L9 7L9 5ZM18 6L18 7L19 7L19 6ZM3 9L3 10L4 10L4 9ZM8 9L8 10L9 10L9 9ZM0 10L0 11L1 11L1 10ZM25 10L25 11L26 11L26 12L27 12L27 11L26 11L26 10ZM20 12L20 13L18 13L18 14L17 14L17 15L18 15L18 16L19 16L19 15L18 15L18 14L20 14L20 17L19 17L19 18L20 18L20 19L21 19L21 18L22 18L22 17L23 17L23 16L21 16L21 13L22 13L22 12ZM10 13L10 14L11 14L11 13ZM26 13L26 14L25 14L25 15L26 15L26 14L27 14L27 13ZM13 14L13 15L12 15L12 17L13 17L13 16L14 16L14 15L16 15L16 14ZM4 15L4 17L5 17L5 18L6 18L6 17L7 17L7 16L5 16L5 15ZM8 16L8 17L9 17L9 16ZM23 18L23 19L24 19L24 18ZM8 19L8 20L9 20L9 19ZM12 19L12 20L13 20L13 23L14 23L14 22L15 22L15 21L14 21L14 20L16 20L16 19ZM21 21L21 24L24 24L24 21ZM26 21L26 22L25 22L25 23L26 23L26 22L27 22L27 21ZM22 22L22 23L23 23L23 22ZM15 25L15 26L16 26L16 25ZM23 26L23 27L24 27L24 26ZM10 27L10 28L11 28L11 27ZM12 28L12 29L13 29L13 28ZM20 28L20 29L21 29L21 28ZM0 0L0 7L7 7L7 0ZM1 1L1 6L6 6L6 1ZM2 2L2 5L5 5L5 2ZM22 0L22 7L29 7L29 0ZM23 1L23 6L28 6L28 1ZM24 2L24 5L27 5L27 2ZM0 22L0 29L7 29L7 22ZM1 23L1 28L6 28L6 23ZM2 24L2 27L5 27L5 24Z" fill="#000000"/></g></g></svg>
